<svg width="18" height="18" viewBox="0 0 18 18" fill="none" xmlns="http://www.w3.org/2000/svg">
<path d="M2.17422 6.65664L8.47422 12.9754C8.54922 13.0504 8.63047 13.1034 8.71797 13.1344C8.80547 13.1659 8.89922 13.1816 8.99922 13.1816C9.09922 13.1816 9.19297 13.1659 9.28047 13.1344C9.36797 13.1034 9.44922 13.0504 9.52422 12.9754L15.843 6.65664C16.018 6.48164 16.1055 6.26289 16.1055 6.00039C16.1055 5.73789 16.0117 5.51289 15.8242 5.32539C15.6367 5.13789 15.418 5.04414 15.168 5.04414C14.918 5.04414 14.6992 5.13789 14.5117 5.32539L8.99922 10.8379L3.48672 5.32539C3.31172 5.15039 3.09622 5.06289 2.84022 5.06289C2.58372 5.06289 2.36172 5.15664 2.17422 5.34414C1.98672 5.53164 1.89297 5.75039 1.89297 6.00039C1.89297 6.25039 1.98672 6.46914 2.17422 6.65664Z" fill="#FFFFFF"/>
</svg>
